<svg width="64" height="64" viewBox="0 0 64 64" fill="none" xmlns="http://www.w3.org/2000/svg">
<path d="M0 21.3333C0 9.55126 9.55126 0 21.3333 0H42.6667C54.4487 0 64 9.55126 64 21.3333V42.6667C64 54.4487 54.4487 64 42.6667 64H21.3333C9.55126 64 0 54.4487 0 42.6667V21.3333Z" fill="#4353FF"/>
<path fill-rule="evenodd" clip-rule="evenodd" d="M29.0751 16.7111H34.9245C37.5382 16.7111 39.6084 16.7111 41.2287 16.9289C42.8961 17.1531 44.2457 17.6254 45.3101 18.6898C46.3744 19.7541 46.8467 21.1037 47.0709 22.7712C47.2888 24.3914 47.2887 26.4616 47.2887 29.0753V30.6558C47.2887 31.5981 47.2887 32.4518 47.2699 33.2218C47.2823 33.2867 47.2887 33.3537 47.2887 33.4222C47.2887 33.5135 47.2773 33.602 47.2557 33.6865C47.2322 34.3182 47.1919 34.8888 47.123 35.4016C46.9509 36.6818 46.5827 37.7596 45.7266 38.6157C44.8706 39.4718 43.7927 39.84 42.5125 40.0121C41.2795 40.1778 39.7118 40.1778 37.7668 40.1778H33.0665V45.1556H37.6887C38.2778 45.1556 38.7554 45.6331 38.7554 46.2222C38.7554 46.8113 38.2778 47.2889 37.6887 47.2889H26.3109C25.7218 47.2889 25.2443 46.8113 25.2443 46.2222C25.2443 45.6331 25.7218 45.1556 26.3109 45.1556H30.9332V40.1778H26.2329C24.2879 40.1778 22.7201 40.1778 21.4871 40.0121C20.207 39.84 19.1291 39.4718 18.273 38.6157C17.417 37.7596 17.0488 36.6818 16.8767 35.4016C16.8077 34.8888 16.7675 34.3182 16.7439 33.6865C16.7224 33.602 16.7109 33.5135 16.7109 33.4222C16.7109 33.3537 16.7174 33.2867 16.7297 33.2218C16.7109 32.4518 16.7109 31.5981 16.7109 30.6558L16.7109 29.0753C16.7109 26.4616 16.7109 24.3914 16.9287 22.7712C17.1529 21.1037 17.6253 19.7541 18.6896 18.6898C19.7539 17.6254 21.1036 17.1531 22.771 16.9289C24.3912 16.7111 26.4614 16.7111 29.0751 16.7111ZM18.9249 34.4889C18.9427 34.7113 18.9645 34.9202 18.991 35.1174C19.1313 36.1609 19.3879 36.7136 19.7815 37.1072C20.1751 37.5008 20.7278 37.7575 21.7714 37.8978C22.8457 38.0422 24.2695 38.0445 26.3109 38.0445H37.6887C39.7302 38.0445 41.154 38.0422 42.2283 37.8978C43.2719 37.7575 43.8245 37.5008 44.2181 37.1072C44.6117 36.7136 44.8684 36.1609 45.0087 35.1174C45.0352 34.9202 45.0569 34.7113 45.0747 34.4889H18.9249ZM45.1501 32.3556H18.8495C18.8445 31.8203 18.8443 31.2306 18.8443 30.5778V29.1556C18.8443 26.4436 18.8465 24.517 19.043 23.0554C19.2354 21.6246 19.5962 20.8002 20.1981 20.1983C20.8 19.5964 21.6244 19.2356 23.0553 19.0432C24.5168 18.8467 26.4435 18.8445 29.1554 18.8445H34.8443C37.5562 18.8445 39.4828 18.8467 40.9444 19.0432C42.3753 19.2356 43.1997 19.5964 43.8016 20.1983C44.4035 20.8002 44.7642 21.6246 44.9566 23.0554C45.1531 24.517 45.1554 26.4436 45.1554 29.1556V30.5778C45.1554 31.2306 45.1552 31.8203 45.1501 32.3556Z" fill="white"/>
</svg>
