<svg width="64" height="64" viewBox="0 0 64 64" fill="none" xmlns="http://www.w3.org/2000/svg">
<path d="M0 21.3333C0 9.55126 9.55126 0 21.3333 0H42.6667C54.4487 0 64 9.55126 64 21.3333V42.6667C64 54.4487 54.4487 64 42.6667 64H21.3333C9.55126 64 0 54.4487 0 42.6667V21.3333Z" fill="#101010" fill-opacity="0.1"/>
<path fill-rule="evenodd" clip-rule="evenodd" d="M31.9199 16.7111H32.0803C34.694 16.7111 36.7643 16.7111 38.3845 16.9289C40.0519 17.1531 41.4016 17.6254 42.4659 18.6898C43.5302 19.7541 44.0026 21.1037 44.2268 22.7712C44.4446 24.3914 44.4446 26.4616 44.4446 29.0753V34.9247C44.4446 37.5384 44.4446 39.6086 44.2268 41.2288C44.0026 42.8963 43.5302 44.2459 42.4659 45.3102C41.4016 46.3746 40.0519 46.8469 38.3845 47.0711C36.7643 47.2889 34.694 47.2889 32.0803 47.2889H31.9199C29.3062 47.2889 27.2359 47.2889 25.6157 47.0711C23.9483 46.8469 22.5987 46.3746 21.5343 45.3102C20.47 44.2459 19.9976 42.8963 19.7735 41.2288C19.5556 39.6086 19.5556 37.5384 19.5557 34.9247V29.0753C19.5556 26.4616 19.5556 24.3914 19.7735 22.7712C19.9976 21.1037 20.47 19.7541 21.5343 18.6898C22.5987 17.6254 23.9483 17.1531 25.6157 16.9289C27.2359 16.7111 29.3062 16.7111 31.9199 16.7111ZM24.6244 19.3041C23.9289 19.5119 23.4379 19.8032 23.0428 20.1983C22.4409 20.8002 22.0801 21.6246 21.8878 23.0554C21.6913 24.517 21.689 26.4436 21.689 29.1556V34.8445C21.689 37.5564 21.6913 39.483 21.8878 40.9446C22.0801 42.3755 22.4409 43.1998 23.0428 43.8017C23.6447 44.4036 24.4691 44.7644 25.9 44.9568C27.3616 45.1533 29.2882 45.1556 32.0001 45.1556C34.712 45.1556 36.6387 45.1533 38.1002 44.9568C39.5311 44.7644 40.3555 44.4036 40.9574 43.8017C41.5593 43.1998 41.9201 42.3755 42.1125 40.9446C42.309 39.483 42.3112 37.5564 42.3112 34.8445V29.1556C42.3112 26.4436 42.309 24.517 42.1125 23.0554C41.9201 21.6246 41.5593 20.8002 40.9574 20.1983C40.5623 19.8032 40.0713 19.5119 39.3758 19.3041C38.4347 20.7173 37.7767 21.6998 36.7983 22.3078C36.6031 22.4291 36.4002 22.5376 36.191 22.6327C35.1355 23.1127 33.9443 23.1121 32.2283 23.1112C32.1532 23.1112 32.0772 23.1111 32.0001 23.1111C31.923 23.1111 31.847 23.1112 31.7719 23.1112C30.0559 23.1121 28.8647 23.1127 27.8092 22.6327C27.6 22.5376 27.3972 22.429 27.202 22.3078C26.2236 21.6998 25.5656 20.7173 24.6244 19.3041ZM26.9531 18.9384C27.5846 19.8537 27.9153 20.2394 28.3279 20.4958C28.445 20.5685 28.5667 20.6337 28.6923 20.6908C29.2738 20.9552 29.9629 20.9778 32.0001 20.9778C34.0373 20.9778 34.7264 20.9552 35.308 20.6908C35.4335 20.6337 35.5552 20.5685 35.6723 20.4958C36.0849 20.2394 36.4156 19.8537 37.0472 18.9384C35.7384 18.8458 34.106 18.8445 32.0001 18.8445C29.8942 18.8445 28.2618 18.8458 26.9531 18.9384ZM26.6668 41.9556C26.6668 41.3665 27.1443 40.8889 27.7334 40.8889H36.2668C36.8559 40.8889 37.3334 41.3665 37.3334 41.9556C37.3334 42.5447 36.8559 43.0222 36.2668 43.0222H27.7334C27.1443 43.0222 26.6668 42.5447 26.6668 41.9556Z" fill="#101010" fill-opacity="0.5"/>
</svg>
