<svg width="60" height="60" viewBox="0 0 60 60" fill="none" xmlns="http://www.w3.org/2000/svg">
<path d="M19 42L19 41.821C18.9998 40.0898 18.9996 38.5024 19.1732 37.2112C19.3644 35.7893 19.8142 34.2864 21.0503 33.0503C22.2864 31.8142 23.7893 31.3644 25.2112 31.1732C26.5024 30.9996 28.0898 30.9998 29.821 31H30.179C31.9103 30.9998 33.4976 30.9996 34.7889 31.1732C36.2108 31.3644 37.7137 31.8142 38.9498 33.0503C40.1859 34.2864 40.6357 35.7893 40.8268 37.2112C40.9979 38.4834 41.0002 40.043 41.0001 41.7445C46.1452 40.6441 50 36.1199 50 30.7059C50 25.7623 46.7859 21.5605 42.3102 20.03C41.6742 14.3874 36.8318 10 30.9524 10C24.6406 10 19.5238 15.0565 19.5238 21.2941C19.5238 22.6737 19.7741 23.9956 20.2323 25.2177C19.695 25.1135 19.1397 25.0588 18.5714 25.0588C13.8376 25.0588 10 28.8512 10 33.5294C10 38.2076 13.8376 42 18.5714 42L19 42Z" fill="#4353FF"/>
<path fill-rule="evenodd" clip-rule="evenodd" d="M30 34C26.2288 34 24.3431 34 23.1716 35.1716C22 36.3431 22 38.2288 22 42C22 45.7712 22 47.6569 23.1716 48.8284C24.3431 50 26.2288 50 30 50C33.7712 50 35.6569 50 36.8284 48.8284C38 47.6569 38 45.7712 38 42C38 38.2288 38 36.3431 36.8284 35.1716C35.6569 34 33.7712 34 30 34ZM33.6095 40.1683L30.9428 37.5016C30.4221 36.9809 29.5779 36.9809 29.0572 37.5016L26.3905 40.1683C25.8698 40.689 25.8698 41.5332 26.3905 42.0539C26.9112 42.5746 27.7554 42.5746 28.2761 42.0539L28.6667 41.6634V45.5556C28.6667 46.2919 29.2636 46.8889 30 46.8889C30.7364 46.8889 31.3333 46.2919 31.3333 45.5556V41.6634L31.7239 42.0539C32.2446 42.5746 33.0888 42.5746 33.6095 42.0539C34.1302 41.5332 34.1302 40.689 33.6095 40.1683Z" fill="#4353FF"/>
</svg>
