
<svg width="16" height="15" viewBox="0 0 16 15" fill="none" xmlns="http://www.w3.org/2000/svg">
<path d="M8 15C8.44632 15 8.80842 14.654 8.80842 14.2175V6.99341C9.60842 6.6804 10.1811 5.9061 10.1811 5.01647C10.1811 4.12685 9.60842 3.35255 8.80842 3.03954V0.757825C8.80842 0.345964 8.44632 0 8 0C7.56211 0 7.19158 0.345964 7.19158 0.757825V3.03954C6.39158 3.35255 5.81895 4.11862 5.81895 5.01647C5.81895 5.9061 6.39158 6.6804 7.19158 6.99341V14.2175C7.19158 14.654 7.55368 15 8 15ZM11.6463 9.89292C11.6463 10.7825 12.2105 11.5486 13.0105 11.8699V14.2422C13.0105 14.654 13.3726 15 13.8189 15C14.2737 15 14.6274 14.654 14.6274 14.2422V11.8699C15.4358 11.5568 16 10.7825 16 9.89292C16 8.99506 15.4358 8.22899 14.6274 7.90774V0.782537C14.6274 0.345964 14.2653 0 13.8189 0C13.3811 0 13.0105 0.345964 13.0105 0.782537V7.91598C12.2105 8.22899 11.6463 8.99506 11.6463 9.89292ZM2.18105 15C2.62737 15 2.98947 14.654 2.98947 14.2422V11.8699C3.78947 11.5486 4.35368 10.7825 4.35368 9.89292C4.35368 8.99506 3.78947 8.22899 2.98947 7.91598V0.782537C2.98947 0.345964 2.62737 0 2.18105 0C1.74316 0 1.37263 0.345964 1.37263 0.782537V7.90774C0.572632 8.22899 0 8.99506 0 9.89292C0 10.7825 0.572632 11.5568 1.37263 11.8699V14.2422C1.37263 14.654 1.73474 15 2.18105 15ZM6.96421 5.01647C6.96421 4.44811 7.41895 4.00329 8 4.00329C8.58947 4.00329 9.03579 4.44811 9.03579 5.01647C9.03579 5.59308 8.58947 6.02965 8 6.02965C7.41895 6.02965 6.96421 5.59308 6.96421 5.01647ZM12.7832 9.89292C12.7832 9.32455 13.2463 8.8715 13.8274 8.8715C14.4168 8.8715 14.8632 9.32455 14.8632 9.89292C14.8632 10.4695 14.4168 10.9061 13.8274 10.9061C13.2463 10.9061 12.7832 10.4695 12.7832 9.89292ZM1.14526 9.89292C1.14526 9.32455 1.6 8.8715 2.18105 8.8715C2.77053 8.8715 3.21684 9.32455 3.21684 9.89292C3.21684 10.4695 2.77053 10.9061 2.18105 10.9061C1.6 10.9061 1.14526 10.4695 1.14526 9.89292Z" fill="#1E1E1E" fill-opacity="0.5"/>
</svg>
