<svg width="40" height="40" viewBox="0 0 40 40" fill="none" xmlns="http://www.w3.org/2000/svg">
<path d="M20.4073 6.66666H10.019L14.0205 10.6721H19.245V33.3333H21.4012H23.5573V10.6721H32.0765L36.078 6.66666H20.4073Z" fill="white"/>
<path d="M18.0009 27.1656H7.92155L3.92139 31.1709H18.0009V27.1656Z" fill="white"/>
<path d="M6.03994 18.8402C6.69333 19.4949 7.45219 20.0122 8.31535 20.3914C9.14859 20.7581 10.0423 20.9476 10.9977 20.9602C11.0129 20.9605 14.3192 20.9537 18.0009 20.946V16.9067C14.3214 16.9178 10.9666 16.9266 10.9458 16.9218C10.0057 16.7074 9.31807 16.3455 8.88423 15.8362C8.42631 15.3 8.19759 14.6254 8.19759 13.8137C8.19759 12.924 8.44598 12.1779 8.94299 11.5754C9.43952 10.9734 10.2113 10.672 11.2577 10.672H12.4199L8.64025 6.88869C8.36159 6.9654 8.08949 7.0606 7.82489 7.17716C7.05315 7.51778 6.37951 8.00191 5.80455 8.63016C5.22887 9.25854 4.77107 10.0113 4.43139 10.8882C4.09123 11.7656 3.92139 12.7405 3.92139 13.8137C3.92139 14.7827 4.11089 15.6987 4.49027 16.5627C4.86905 17.4264 5.38584 18.1862 6.03994 18.8402Z" fill="white"/>
<path d="M35.4895 21.2749C35.0973 20.4111 34.5739 19.6521 33.9204 18.9974C33.2664 18.3432 32.5015 17.8259 31.6254 17.4462C30.766 17.0745 29.8632 16.8843 28.9166 16.8769C28.8976 16.8768 27.4717 16.8767 27.4525 16.8767C27.4525 16.8767 26.3183 16.8805 24.6455 16.886V20.9322C26.5513 20.9282 27.8751 20.9255 27.8751 20.9255C28.3022 20.9278 28.9009 20.9302 28.9121 20.9327C29.9049 21.1444 30.6262 21.5137 31.076 22.0406C31.5335 22.5776 31.7625 23.2384 31.7625 24.0239C31.7625 24.9406 31.5139 25.6928 31.0174 26.2818C30.5201 26.871 29.7356 27.1656 28.6633 27.1656H24.6455V31.171H29.6442C30.5071 31.171 31.3311 31.0008 32.1158 30.6605C32.9003 30.3206 33.5869 29.8357 34.1755 29.2075C34.7639 28.5791 35.228 27.8269 35.5681 26.9494C35.9076 26.0726 36.0781 25.0977 36.0781 24.0239C36.0781 23.0556 35.882 22.1389 35.4895 21.2749Z" fill="white"/>
</svg>
