<svg width="22" height="22" viewBox="0 0 22 22" fill="none" xmlns="http://www.w3.org/2000/svg">
<path d="M9.84674 14.9545C10.9447 14.9545 11.9737 14.623 12.83 14.0568L15.8547 17.0884C16.055 17.2817 16.3105 17.3784 16.5867 17.3784C17.1599 17.3784 17.5811 16.9295 17.5811 16.3633C17.5811 16.1009 17.4913 15.8454 17.298 15.652L14.294 12.6342C14.9155 11.7503 15.2815 10.6799 15.2815 9.51974C15.2815 6.52958 12.8369 4.08496 9.84674 4.08496C6.86348 4.08496 4.41196 6.52958 4.41196 9.51974C4.41196 12.5099 6.85657 14.9545 9.84674 14.9545ZM9.84674 13.5043C7.65763 13.5043 5.86215 11.7088 5.86215 9.51974C5.86215 7.33064 7.65763 5.53516 9.84674 5.53516C12.0358 5.53516 13.8313 7.33064 13.8313 9.51974C13.8313 11.7088 12.0358 13.5043 9.84674 13.5043Z" fill="#1E1E1E" fill-opacity="0.5"/>
</svg>
