<svg width="30" height="30" viewBox="0 0 30 30" fill="none" xmlns="http://www.w3.org/2000/svg">
<path d="M19.8875 15.4625H25.75C25.65 21.3 24.5 22.2626 20.9125 24.3876C20.5 24.6376 20.3625 25.1625 20.6125 25.5875C20.8625 26 21.3875 26.1376 21.8125 25.8876C26.0375 23.3876 27.5125 21.8625 27.5125 14.5875V7.85008C27.5125 5.71258 25.775 3.98755 23.65 3.98755H19.9C17.7 3.98755 16.0375 5.65008 16.0375 7.85008V11.6001C16.025 13.8001 17.6875 15.4625 19.8875 15.4625Z" fill="#101010"/>
<path opacity="0.4" d="M6.36252 15.4625H12.225C12.125 21.3 10.975 22.2626 7.38752 24.3876C6.97502 24.6376 6.83752 25.1625 7.08752 25.5875C7.33752 26 7.86252 26.1376 8.28752 25.8876C12.5125 23.3876 13.9875 21.8625 13.9875 14.5875V7.85008C13.9875 5.71258 12.25 3.98755 10.125 3.98755H6.37502C4.17502 3.98755 2.51252 5.65008 2.51252 7.85008V11.6001C2.50002 13.8001 4.16252 15.4625 6.36252 15.4625Z" fill="#101010"/>
</svg>
