<svg width="40" height="40" viewBox="0 0 40 40" fill="none" xmlns="http://www.w3.org/2000/svg">
<path opacity="0.5" d="M20 33.3333C27.3638 33.3333 33.3334 27.3638 33.3334 20C33.3334 12.6362 27.3638 6.66666 20 6.66666C12.6362 6.66666 6.66669 12.6362 6.66669 20C6.66669 27.3638 12.6362 33.3333 20 33.3333Z" fill="white" fill-opacity="0.5"/>
<path d="M22.0405 15.2929C21.6499 14.9024 21.0168 14.9024 20.6262 15.2929C20.2357 15.6834 20.2357 16.3166 20.6262 16.7071L22.9191 19H14.6667C14.1144 19 13.6667 19.4477 13.6667 20C13.6667 20.5523 14.1144 21 14.6667 21H22.9191L20.6262 23.2929C20.2357 23.6834 20.2357 24.3166 20.6262 24.7071C21.0168 25.0976 21.6499 25.0976 22.0405 24.7071L26.0405 20.7071C26.431 20.3166 26.431 19.6834 26.0405 19.2929L22.0405 15.2929Z" fill="white" fill-opacity="0.5"/>
</svg>
