<svg width="40" height="40" viewBox="0 0 40 40" fill="none" xmlns="http://www.w3.org/2000/svg">
<path opacity="0.5" d="M20 33.3333C12.6362 33.3333 6.66669 27.3638 6.66669 20C6.66669 12.6362 12.6362 6.66666 20 6.66666C27.3638 6.66666 33.3334 12.6362 33.3334 20C33.3334 27.3638 27.3638 33.3333 20 33.3333Z" fill="white" fill-opacity="0.5"/>
<path d="M17.9596 15.2929C18.3501 14.9024 18.9833 14.9024 19.3738 15.2929C19.7643 15.6834 19.7643 16.3166 19.3738 16.7071L17.0809 19H25.3334C25.8856 19 26.3334 19.4477 26.3334 20C26.3334 20.5523 25.8856 21 25.3334 21H17.0809L19.3738 23.2929C19.7643 23.6834 19.7643 24.3166 19.3738 24.7071C18.9833 25.0976 18.3501 25.0976 17.9596 24.7071L13.9596 20.7071C13.5691 20.3166 13.5691 19.6834 13.9596 19.2929L17.9596 15.2929Z" fill="white" fill-opacity="0.5"/>
</svg>
