<svg width="30" height="30" viewBox="0 0 30 30" fill="none" xmlns="http://www.w3.org/2000/svg">
<path d="M6 15C6 18.7712 6 22.6569 7.31802 23.8284C8.63604 25 10.7574 25 15 25C19.2426 25 21.364 25 22.682 23.8284C24 22.6569 24 18.7712 24 15" stroke="#4353FF" stroke-width="1.5"/>
<path d="M17.6603 17.2019L23.6676 15.3997C24.2631 15.2211 24.5609 15.1317 24.7498 14.9176C24.7866 14.8759 24.8199 14.8312 24.8492 14.784C25 14.5415 25 14.2307 25 13.6089C25 11.1588 25 9.9337 24.327 9.10659C24.1977 8.94763 24.0524 8.80233 23.8934 8.67298C23.0663 8 21.8412 8 19.3911 8H10.6089C8.15877 8 6.9337 8 6.10659 8.67298C5.94763 8.80233 5.80233 8.94763 5.67298 9.10659C5 9.9337 5 11.1588 5 13.6089C5 14.2307 5 14.5415 5.15078 14.784C5.18015 14.8312 5.21341 14.8759 5.25021 14.9176C5.43915 15.1317 5.7369 15.2211 6.3324 15.3997L12.3397 17.2019" stroke="#4353FF" stroke-width="1.5"/>
<path d="M9.5 8C10.3234 7.97913 11.1593 7.45491 11.4394 6.68032C11.4481 6.65649 11.4569 6.62999 11.4746 6.57697L11.5002 6.5C11.5424 6.37344 11.5635 6.31014 11.5861 6.254C11.8743 5.53712 12.5496 5.05037 13.3208 5.00366C13.3812 5 13.4479 5 13.5814 5H16.4191C16.5525 5 16.6192 5 16.6796 5.00366C17.4508 5.05037 18.1262 5.53712 18.4144 6.254C18.4369 6.31014 18.458 6.37343 18.5002 6.5L18.5259 6.57697C18.5435 6.62968 18.5524 6.65656 18.561 6.68032C18.8412 7.45491 19.6766 7.97913 20.5 8" stroke="#4353FF" stroke-width="1.5"/>
<path d="M17 15.5H13C12.7239 15.5 12.5 15.7239 12.5 16V18.1615C12.5 18.3659 12.6245 18.5498 12.8143 18.6257L13.5144 18.9058C14.4681 19.2872 15.5319 19.2872 16.4856 18.9058L17.1857 18.6257C17.3755 18.5498 17.5 18.3659 17.5 18.1615V16C17.5 15.7239 17.2761 15.5 17 15.5Z" stroke="#4353FF" stroke-width="1.5" stroke-linecap="round"/>
</svg>
