<svg width="40" height="40" viewBox="0 0 40 40" fill="none" xmlns="http://www.w3.org/2000/svg">
<path d="M31.6151 22.0819C31.6072 22.1258 31.6017 22.1701 31.5934 22.2141L31.5506 21.9623C31.574 22.0015 31.5934 22.0423 31.6151 22.0819C31.7442 21.3795 31.8119 20.6605 31.8119 19.9419C31.8119 18.3484 31.4999 16.8023 30.8835 15.347C30.2888 13.9411 29.438 12.6785 28.3532 11.5945C27.27 10.5105 26.0066 9.65965 24.6015 9.06499C23.1465 8.44934 21.6005 8.13736 20.0069 8.13736C19.2559 8.13736 18.5036 8.20783 17.7716 8.34838C17.77 8.34878 17.768 8.34878 17.7661 8.34918C17.8072 8.37095 17.8488 8.39035 17.8892 8.41292L17.6409 8.37412C17.6825 8.3662 17.7245 8.35749 17.7661 8.34918C16.7616 7.81509 15.6321 7.53003 14.4887 7.53003C12.6219 7.53003 10.8669 8.25693 9.54688 9.5773C8.22729 10.8973 7.5 12.6524 7.5 14.5191C7.5 15.7072 7.80565 16.8752 8.37933 17.9073C8.38685 17.8646 8.39199 17.8214 8.40031 17.7787L8.44307 18.0261C8.4209 17.9873 8.4015 17.9469 8.37933 17.9073C8.26293 18.576 8.20156 19.2594 8.20156 19.9419C8.20156 21.5359 8.51354 23.0815 9.12998 24.5373C9.72385 25.9436 10.5751 27.2054 11.6587 28.2894C12.7435 29.3734 14.0053 30.2254 15.4119 30.8185C16.8669 31.4353 18.4134 31.7477 20.0069 31.7477C20.7006 31.7477 21.3958 31.6844 22.0744 31.564C22.0348 31.5418 21.9944 31.5216 21.954 31.4983L22.2062 31.5426C22.1627 31.5509 22.1187 31.5561 22.0744 31.564C23.12 32.1555 24.3038 32.4699 25.5125 32.4699C27.3788 32.4699 29.1331 31.7441 30.4531 30.4234C31.7735 29.1042 32.5 27.3487 32.5 25.482C32.5 24.2899 32.1928 23.118 31.6151 22.0819ZM20.054 27.1717C15.8601 27.1717 13.9839 25.1098 13.9839 23.5646C13.9839 22.7719 14.569 22.2165 15.3755 22.2165C17.1702 22.2165 16.7054 24.7935 20.054 24.7935C21.7684 24.7935 22.715 23.8627 22.715 22.9101C22.715 22.3372 22.4323 21.7022 21.3035 21.4238L17.5732 20.4927C14.569 19.7392 14.0239 18.1152 14.0239 16.5885C14.0239 13.4189 17.0083 12.2287 19.811 12.2287C22.3927 12.2287 25.4361 13.6556 25.4361 15.5572C25.4361 16.372 24.7306 16.8459 23.9245 16.8459C22.3927 16.8459 22.6746 14.7258 19.5892 14.7258C18.0582 14.7258 17.2102 15.419 17.2102 16.4112C17.2102 17.4014 18.4193 17.7177 19.4693 17.9568L22.2304 18.5697C25.2548 19.2435 26.0217 21.0093 26.0217 22.6726C26.0217 25.2484 24.0445 27.1717 20.054 27.1717ZM21.954 31.4983C21.9944 31.5216 22.0348 31.5418 22.0744 31.564C22.1187 31.5561 22.1627 31.5509 22.2062 31.5426L21.954 31.4983ZM31.5934 22.2141C31.6017 22.1701 31.6072 22.1258 31.6151 22.0819C31.5934 22.0423 31.574 22.0015 31.5506 21.9623L31.5934 22.2141ZM8.40031 17.7787C8.39199 17.8214 8.38685 17.8646 8.37933 17.9073C8.4015 17.9469 8.4209 17.9873 8.44307 18.0261L8.40031 17.7787ZM17.8892 8.41292C17.8488 8.39035 17.8072 8.37095 17.7661 8.34918C17.7245 8.35749 17.6825 8.3662 17.6409 8.37412L17.8892 8.41292Z" fill="white"/>
</svg>
