<svg width="40" height="40" viewBox="0 0 40 40" fill="none" xmlns="http://www.w3.org/2000/svg">
<path d="M28.9589 11.0097C26.8148 8.80245 23.8508 7.60425 20.8238 7.60425C14.3913 7.60425 9.22017 12.8385 9.28323 19.2079C9.28323 21.2259 9.8508 23.1808 10.7967 24.9466L9.1571 30.9376L15.2742 29.361C16.9769 30.307 18.8688 30.7484 20.7607 30.7484C27.1301 30.7484 32.3013 25.5142 32.3013 19.1448C32.3013 16.0547 31.1031 13.1538 28.9589 11.0097ZM20.8238 28.7934C19.1211 28.7934 17.4184 28.352 15.9679 27.4691L15.5895 27.2799L11.9319 28.2259L12.8778 24.6313L12.6256 24.2529C9.8508 19.7754 11.1751 13.8475 15.7157 11.0727C20.2562 8.29794 26.1211 9.62227 28.8958 14.1628C31.6706 18.7033 30.3463 24.5682 25.8058 27.343C24.3553 28.2889 22.5895 28.7934 20.8238 28.7934ZM26.3733 21.7934L25.6796 21.4781C25.6796 21.4781 24.6706 21.0367 24.04 20.7214C23.9769 20.7214 23.9139 20.6583 23.8508 20.6583C23.6616 20.6583 23.5355 20.7214 23.4094 20.7844C23.4094 20.7844 23.3463 20.8475 22.4634 21.8565C22.4003 21.9826 22.2742 22.0457 22.1481 22.0457H22.085C22.022 22.0457 21.8958 21.9826 21.8328 21.9196L21.5175 21.7934C20.8238 21.4781 20.1931 21.0997 19.6886 20.5952C19.5625 20.4691 19.3733 20.343 19.2472 20.2169C18.8058 19.7754 18.3643 19.2709 18.049 18.7033L17.9859 18.5772C17.9229 18.5142 17.9229 18.4511 17.8598 18.325C17.8598 18.1988 17.8598 18.0727 17.9229 18.0097C17.9229 18.0097 18.1751 17.6943 18.3643 17.5051C18.4904 17.379 18.5535 17.1898 18.6796 17.0637C18.8058 16.8745 18.8688 16.6223 18.8058 16.4331C18.7427 16.1178 17.9859 14.4151 17.7967 14.0367C17.6706 13.8475 17.5445 13.7844 17.3553 13.7214H17.1661C17.04 13.7214 16.8508 13.7214 16.6616 13.7214C16.5355 13.7214 16.4094 13.7844 16.2832 13.7844L16.2202 13.8475C16.094 13.9106 15.9679 14.0367 15.8418 14.0997C15.7157 14.2259 15.6526 14.352 15.5265 14.4781C15.085 15.0457 14.8328 15.7394 14.8328 16.4331C14.8328 16.9376 14.9589 17.4421 15.1481 17.8835L15.2112 18.0727C15.7787 19.2709 16.5355 20.343 17.5445 21.2889L17.7967 21.5412C17.9859 21.7304 18.1751 21.8565 18.3012 22.0457C19.6256 23.1808 21.1391 24.0006 22.8418 24.4421C23.031 24.5051 23.2832 24.5051 23.4724 24.5682C23.6616 24.5682 23.9139 24.5682 24.1031 24.5682C24.4184 24.5682 24.7967 24.4421 25.049 24.316C25.2382 24.1898 25.3643 24.1898 25.4904 24.0637L25.6166 23.9376C25.7427 23.8115 25.8688 23.7484 25.9949 23.6223C26.1211 23.4961 26.2472 23.37 26.3103 23.2439C26.4364 22.9916 26.4994 22.6763 26.5625 22.361C26.5625 22.2349 26.5625 22.0457 26.5625 21.9196C26.5625 21.9196 26.4994 21.8565 26.3733 21.7934Z" fill="white"/>
</svg>
